<svg width="110" height="110" viewBox="0 0 110 110" fill="none" xmlns="http://www.w3.org/2000/svg">
<g clip-path="url(#clip0_15_32)">
<path d="M26.4 0C19.5938 0 14.618 0.876564 11.2063 3.85C7.79453 6.82344 6.6 11.507 6.6 17.6V26.4H4.4C1.99375 26.4 0 28.3938 0 30.8V48.4C0 50.8063 1.99375 52.8 4.4 52.8H6.6V90.2C6.6 92.8898 7.44219 95.15 8.8 96.8688V103.4C8.8 107.018 11.782 110 15.4 110H24.2C27.818 110 30.8 107.018 30.8 103.4V101.2H79.2V103.4C79.2 107.018 82.182 110 85.8 110H94.6C98.218 110 101.2 107.018 101.2 103.4V96.8688C102.558 95.15 103.4 92.8898 103.4 90.2V52.8H105.6C108.006 52.8 110 50.8063 110 48.4V30.8C110 28.3938 108.006 26.4 105.6 26.4H103.4V19.8C103.4 13.982 102.936 9.22109 100.581 5.56875C98.2266 1.91641 93.9125 0 88 0H26.4ZM26.4 4.4H88C93.0875 4.4 95.3734 5.59453 96.8688 7.90625C98.3641 10.218 99 14.2656 99 19.8V90.2C99 93.2508 98.1234 94.4539 96.3188 95.425C94.5141 96.3961 91.4891 96.8 88 96.8H22C18.5109 96.8 15.4859 96.3961 13.6813 95.425C11.8766 94.4539 11 93.2508 11 90.2V17.6C11 12.0656 12.0055 9.04063 14.0938 7.21875C16.182 5.39688 20.0063 4.4 26.4 4.4ZM33 6.6C30.5938 6.6 28.6 8.59375 28.6 11V15.4C28.6 17.8063 30.5938 19.8 33 19.8H79.2C81.6063 19.8 83.6 17.8063 83.6 15.4V11C83.6 8.59375 81.6063 6.6 79.2 6.6H33ZM33 11H79.2V15.4H33V11ZM24.2 22C21.6305 22 19.2844 22.6531 17.6688 24.2688C16.0531 25.8844 15.4 28.2305 15.4 30.8V57.2C15.4 59.7695 16.0531 62.1156 17.6688 63.7313C19.2844 65.3469 21.6305 66 24.2 66L85.8 65.8625C87.5961 65.8625 89.5297 65.175 91.3 63.8C93.0703 62.425 94.6 60.1133 94.6 57.2V30.8C94.6 28.2305 93.9469 25.8844 92.3313 24.2688C90.7156 22.6531 88.3695 22 85.8 22H24.2ZM24.2 26.4H85.8C87.6305 26.4 88.5844 26.8469 89.1688 27.4313C89.7531 28.0156 90.2 28.9695 90.2 30.8V57.2C90.2 58.6867 89.5727 59.5547 88.6188 60.2938C87.6648 61.0328 86.307 61.4625 85.8 61.4625L24.2 61.6C22.3695 61.6 21.4156 61.1531 20.8313 60.5688C20.2469 59.9844 19.8 59.0305 19.8 57.2V30.8C19.8 28.9695 20.2469 28.0156 20.8313 27.4313C21.4156 26.8469 22.3695 26.4 24.2 26.4ZM4.4 30.8H6.6V48.4H4.4V30.8ZM103.4 30.8H105.6V48.4H103.4V30.8ZM25.3 72.6C19.8602 72.6 15.4 77.0602 15.4 82.5C15.4 87.9398 19.8602 92.4 25.3 92.4C30.7398 92.4 35.2 87.9398 35.2 82.5C35.2 77.0602 30.7398 72.6 25.3 72.6ZM84.7 72.6C79.2602 72.6 74.8 77.0602 74.8 82.5C74.8 87.9398 79.2602 92.4 84.7 92.4C90.1398 92.4 94.6 87.9398 94.6 82.5C94.6 77.0602 90.1398 72.6 84.7 72.6ZM25.3 77C28.3594 77 30.8 79.4406 30.8 82.5C30.8 85.5594 28.3594 88 25.3 88C22.2406 88 19.8 85.5594 19.8 82.5C19.8 79.4406 22.2406 77 25.3 77ZM84.7 77C87.7594 77 90.2 79.4406 90.2 82.5C90.2 85.5594 87.7594 88 84.7 88C81.6406 88 79.2 85.5594 79.2 82.5C79.2 79.4406 81.6406 77 84.7 77ZM13.2 99.9625C15.8383 100.959 18.8461 101.2 22 101.2H26.4V103.4C26.4 104.638 25.4375 105.6 24.2 105.6H15.4C14.1625 105.6 13.2 104.638 13.2 103.4V99.9625ZM96.8 99.9625V103.4C96.8 104.638 95.8375 105.6 94.6 105.6H85.8C84.5625 105.6 83.6 104.638 83.6 103.4V101.2H88C91.1539 101.2 94.1617 100.959 96.8 99.9625Z" fill="#929292"/>
</g>
<defs>
<clipPath id="clip0_15_32">
<rect width="110" height="110" fill="white"/>
</clipPath>
</defs>
</svg>
