<svg width="110" height="110" viewBox="0 0 110 110" fill="none" xmlns="http://www.w3.org/2000/svg">
<g clip-path="url(#clip0_15_6)">
<path fill-rule="evenodd" clip-rule="evenodd" d="M39.998 0.187284C38.3876 0.671126 37.2413 1.67211 36.5369 3.20936C36.1223 4.11389 36.0936 4.60159 36.089 10.7828C36.0844 17.2026 36.0721 17.3895 35.6575 17.3895C35.4226 17.3895 34.6673 17.5976 33.9786 17.8522C32.315 18.4669 30.6569 20.0899 30.0546 21.6931C29.7886 22.4011 29.2536 25.4167 28.7092 29.2782L27.8054 35.6883L26.9594 36.8197C25.5845 38.658 23.9559 41.6186 23.0528 43.9209C19.1921 53.7636 20.4841 64.733 26.5337 73.4731L27.8031 75.3073L28.7644 81.9711C29.8545 89.5274 30.0392 90.0959 31.9569 91.7988C32.9805 92.708 33.5269 92.9596 35.8124 93.5747C36.0219 93.6311 36.0843 95.0485 36.0843 99.7397V105.83L36.6824 106.996C37.3491 108.294 38.6708 109.414 39.9504 109.765C41.1589 110.097 65.6744 110.069 66.8036 109.734C67.945 109.397 69.65 107.857 70.1465 106.715C70.4939 105.916 70.5544 105.02 70.6233 99.623L70.7023 93.4464L71.2827 93.4443C72.8061 93.4389 75.4186 91.5487 76.316 89.8026C76.8489 88.7659 77.0573 87.6176 77.9549 80.7703L78.7296 74.8619L79.5955 73.6416C82.5744 69.4427 84.8041 63.5623 85.1623 58.9598L85.3006 57.1819L86.819 57.097C88.0858 57.0264 88.4051 56.9296 88.7461 56.5137C89.2979 55.8405 89.2636 54.949 88.6641 54.3927C88.2891 54.0449 87.8397 53.9217 86.761 53.8719L85.3487 53.8066L85.2097 52.2709C84.7686 47.3942 83.0051 42.5166 80.0166 37.9077L78.7627 35.974L77.8753 29.4211C77.3873 25.817 76.8291 22.4095 76.6351 21.8489C75.9698 19.9262 73.5427 17.8682 71.4994 17.4941L70.7001 17.3478L70.6294 10.762C70.5493 3.33054 70.4957 3.0579 68.7909 1.44609C67.2159 -0.0430363 67.5111 -0.0155355 53.2939 0.0050901C46.281 0.015188 40.2977 0.0972609 39.998 0.187284ZM66.5856 3.83609L67.2959 4.46301L67.3579 15.572L67.4199 26.6809L66.9229 26.5668C66.6496 26.5038 65.8387 26.2083 65.1209 25.9096C57.8511 22.8856 48.7057 22.8666 41.1908 25.8598L39.3468 26.5943V15.7753C39.3468 9.43078 39.4327 4.73308 39.5543 4.41704C40.0163 3.21667 39.8925 3.22741 53.4266 3.21796L65.8752 3.20936L66.5856 3.83609ZM52.8884 6.6012C51.8191 6.76621 51.3706 8.42614 52.1795 9.22517C53.5226 10.5518 55.7589 8.72349 54.5897 7.25499C54.1135 6.65729 53.6585 6.48239 52.8884 6.6012ZM36.0843 24.4613V28.3103L34.9423 29.1227C34.3144 29.5695 33.3357 30.3118 32.7674 30.7723C32.199 31.2329 31.7342 31.5206 31.7342 31.4116C31.7342 31.3028 31.9836 29.4434 32.2886 27.2801C32.647 24.7386 32.9925 23.0577 33.2648 22.5302C33.6626 21.7602 35.1799 20.6189 35.8124 20.6142C36.0199 20.6127 36.0843 21.5243 36.0843 24.4613ZM72.3532 21.4003C73.4476 22.21 73.6897 22.918 74.2648 26.991C75.019 32.3313 75.1128 32.0351 73.1544 30.4979C72.2493 29.7876 71.3195 29.1064 71.0882 28.9839C70.6946 28.7759 70.6672 28.4957 70.6672 24.6722V20.5833L71.1566 20.7302C71.4259 20.811 71.9643 21.1124 72.3532 21.4003ZM59.0093 27.3731C68.5858 29.5182 76.2523 35.8224 79.9157 44.5641C81.6697 48.7494 82.4466 53.7505 81.9992 57.9724C81.2566 64.9778 78.4793 70.8302 73.6036 75.6646C68.0615 81.1594 60.9786 84.0502 53.0495 84.0532C48.3203 84.0552 44.4181 83.1511 40.2416 81.0859C33.2866 77.6466 27.9222 71.5362 25.5465 64.3467C24.4768 61.1102 24.2321 59.4438 24.2347 55.418C24.2377 51.267 24.5235 49.4585 25.6946 46.1794C29.2547 36.2123 37.8584 28.9893 48.3421 27.1665C50.621 26.7703 56.8569 26.891 59.0093 27.3731ZM50.6792 29.4484C38.8752 30.4627 29.2323 39.2604 27.0418 51.0135C26.5104 53.8655 26.704 59.0822 27.4446 61.8634C29.0119 67.7491 32.7237 73.1139 37.7156 76.7086C40.0321 78.3769 43.6277 80.026 46.6399 80.8023C49.0157 81.4144 49.5571 81.4752 52.832 81.4962C56.7949 81.5219 58.6073 81.2414 61.9672 80.0826C68.9418 77.6769 74.7435 72.2094 77.6114 65.3391C78.6098 62.9476 79.4661 59.348 79.1829 58.7337C78.6346 57.545 77.0768 57.2936 76.4411 58.2912C76.2808 58.5426 75.8956 59.7633 75.5852 61.0041C73.9261 67.6342 69.3968 73.118 63.1279 76.0863C54.0095 80.4042 43.4426 78.5051 36.3948 71.2821C33.7396 68.5605 31.908 65.4154 30.7221 61.5412C30.1684 59.7313 30.1301 59.3463 30.1273 55.5254C30.1247 52.0042 30.1882 51.2166 30.5899 49.7943C32.5109 42.9915 37.2986 37.3789 43.5803 34.5652C48.091 32.545 53.8075 32.0266 58.6693 33.1969C66.9388 35.1877 73.8137 42.0779 75.6954 50.2616C76.1998 52.4552 76.7075 53.2695 77.5708 53.2695C79.06 53.2695 79.4941 52.3534 79.038 50.1726C76.3273 37.2094 64.1263 28.2931 50.6792 29.4484ZM52.3176 36.5268C51.1797 37.4109 51.9043 39.3042 53.381 39.3042C54.2234 39.3042 54.8765 38.6006 54.8765 37.6928C54.8765 36.2587 53.481 35.6227 52.3176 36.5268ZM52.1795 43.3864C51.7734 43.7875 51.7445 44.1024 51.7445 48.1131C51.7445 50.4764 51.6695 52.4101 51.5779 52.4101C51.4863 52.4101 50.6298 51.9288 49.6748 51.3405C48.7197 50.7523 47.7135 50.2689 47.439 50.2663C46.7798 50.26 45.8719 51.1784 45.8719 51.8512C45.8719 52.6599 46.5809 53.2731 49.7101 55.1696C53.2536 57.317 53.4843 57.3849 54.3491 56.5307L55.007 55.8808V49.946V44.0114L54.473 43.4841C53.814 42.8329 52.7842 42.7891 52.1795 43.3864ZM34.3443 54.3437C33.7981 54.8832 33.7685 56.0855 34.2898 56.5496C35.4133 57.5497 37.0434 56.8596 37.0014 55.4016C36.9629 54.0685 35.2952 53.4044 34.3443 54.3437ZM70.0525 54.4112C68.8714 55.6533 70.1798 57.5662 71.7666 56.9172C72.3266 56.6879 72.8423 55.9269 72.8423 55.3294C72.8423 55.1737 72.6393 54.7915 72.3914 54.4802C71.8022 53.7402 70.7212 53.7085 70.0525 54.4112ZM52.0708 60.8198C51.8315 60.9474 51.2727 61.428 50.8288 61.8873C50.357 62.3759 49.815 62.7248 49.5238 62.7276C49.2499 62.7302 48.6161 62.916 48.1157 63.1403C46.8596 63.7038 46.43 64.5691 46.626 66.142C46.8111 67.6272 46.8107 68.2763 46.6241 69.9399C46.4831 71.1948 46.5052 71.2806 47.1643 72.0218C47.6863 72.609 48.1309 72.8567 49.0142 73.052C49.9207 73.2522 50.3786 73.5143 51.0913 74.2408C52.574 75.7523 54.291 75.7241 55.6763 74.1658C56.1669 73.6139 56.6839 73.307 57.4593 73.1086C59.7161 72.5301 60.4207 71.5055 59.993 69.4237C59.6731 67.8664 59.674 67.7536 60.0129 66.5775C60.1731 66.0212 60.2279 65.3333 60.1395 64.9857C59.89 64.0036 58.7302 63.0157 57.6118 62.8325C56.865 62.71 56.3754 62.4285 55.5095 61.6237C54.5137 60.6981 54.2701 60.5752 53.4432 60.5808C52.9274 60.5845 52.31 60.6919 52.0708 60.8198ZM55.8666 65.7279C56.6913 65.9474 56.7399 66.0024 56.5866 66.5453C56.3769 67.2874 56.3825 68.443 56.6 69.3035C56.7625 69.9464 56.7364 69.982 56.0023 70.118C55.58 70.1962 54.7852 70.599 54.2362 71.0131L53.2378 71.7657L52.479 71.1076C52.0614 70.7456 51.2942 70.3369 50.774 70.1994C49.8986 69.9681 49.8426 69.9112 50.0249 69.4376C50.2807 68.7729 50.2777 67.1924 50.0191 66.5206C49.8293 66.0279 49.8792 65.9759 50.775 65.7282C51.3025 65.5823 52.1034 65.1472 52.5549 64.7616L53.3758 64.0601L54.179 64.7764C54.621 65.1704 55.3802 65.5987 55.8666 65.7279ZM74.3628 83.0722C73.793 87.4627 73.6392 88.0876 72.9195 88.9324C72.3705 89.5768 71.3565 90.2237 70.8957 90.2237C70.744 90.2237 70.6705 88.8706 70.6766 86.1952L70.6862 82.1668L72.1817 81.1248C73.0043 80.5518 73.9035 79.8449 74.1799 79.5545C74.4563 79.2637 74.7159 79.125 74.7568 79.2459C74.7974 79.3669 74.6204 81.0887 74.3628 83.0722ZM34.3192 81.3042L36.0843 82.5903V86.4069C36.0843 89.7276 36.0399 90.2237 35.7436 90.2237C34.8645 90.2237 33.3804 88.992 33.0473 87.9861C32.8589 87.4169 31.7342 80.2768 31.7342 79.6499C31.7342 79.5244 31.9115 79.5562 32.1442 79.7235C32.37 79.8858 33.3488 80.5969 34.3192 81.3042ZM67.4047 91.7027V99.1972L66.0033 99.2854C64.3447 99.3897 63.7072 99.8241 63.7072 100.851C63.7072 102.016 64.1393 102.349 65.81 102.47L67.2959 102.578L67.2768 104.062C67.259 105.448 67.212 105.588 66.5665 106.157L65.8752 106.767H53.4913C44.353 106.767 40.9578 106.7 40.537 106.51C39.727 106.146 39.3468 105.271 39.3468 103.77V102.47H48.784C57.6315 102.47 58.2524 102.445 58.7168 102.074C59.4337 101.501 59.388 100.403 58.6199 99.751L58.0277 99.2475H48.6872H39.3468V91.8351C39.3468 87.7583 39.386 84.4227 39.4339 84.4227C39.4815 84.4227 40.4146 84.7637 41.5071 85.1805C48.4587 87.8324 56.2873 88.0083 63.3628 85.6717C64.4493 85.3129 65.681 84.8411 66.0997 84.6232C66.5184 84.4051 66.9834 84.2227 67.1328 84.2173C67.3453 84.21 67.4047 85.845 67.4047 91.7027Z" fill="#929292"/>
</g>
<defs>
<clipPath id="clip0_15_6">
<rect width="68.2759" height="110" fill="white" transform="translate(20.8621)"/>
</clipPath>
</defs>
</svg>
