<svg width="20" height="17" viewBox="0 0 20 17" fill="none" xmlns="http://www.w3.org/2000/svg">
<path d="M17 0.169922H3C2.20435 0.169922 1.44129 0.485993 0.87868 1.0486C0.316071 1.61121 0 2.37427 0 3.16992V13.1699C0 13.9655 0.316071 14.7286 0.87868 15.2912C1.44129 15.8538 2.20435 16.1699 3 16.1699H17C17.7956 16.1699 18.5587 15.8538 19.1213 15.2912C19.6839 14.7286 20 13.9655 20 13.1699V3.16992C20 2.37427 19.6839 1.61121 19.1213 1.0486C18.5587 0.485993 17.7956 0.169922 17 0.169922ZM16.59 2.16992L10.71 8.04992C10.617 8.14365 10.5064 8.21804 10.3846 8.26881C10.2627 8.31958 10.132 8.34572 10 8.34572C9.86799 8.34572 9.73728 8.31958 9.61542 8.26881C9.49356 8.21804 9.38296 8.14365 9.29 8.04992L3.41 2.16992H16.59ZM18 13.1699C18 13.4351 17.8946 13.6895 17.7071 13.877C17.5196 14.0645 17.2652 14.1699 17 14.1699H3C2.73478 14.1699 2.48043 14.0645 2.29289 13.877C2.10536 13.6895 2 13.4351 2 13.1699V3.57992L7.88 9.45992C8.4425 10.0217 9.205 10.3373 10 10.3373C10.795 10.3373 11.5575 10.0217 12.12 9.45992L18 3.57992V13.1699Z" fill="white"/>
<path d="M17 0.169922H3C2.20435 0.169922 1.44129 0.485993 0.87868 1.0486C0.316071 1.61121 0 2.37427 0 3.16992V13.1699C0 13.9655 0.316071 14.7286 0.87868 15.2912C1.44129 15.8538 2.20435 16.1699 3 16.1699H17C17.7956 16.1699 18.5587 15.8538 19.1213 15.2912C19.6839 14.7286 20 13.9655 20 13.1699V3.16992C20 2.37427 19.6839 1.61121 19.1213 1.0486C18.5587 0.485993 17.7956 0.169922 17 0.169922ZM16.59 2.16992L10.71 8.04992C10.617 8.14365 10.5064 8.21804 10.3846 8.26881C10.2627 8.31958 10.132 8.34572 10 8.34572C9.86799 8.34572 9.73728 8.31958 9.61542 8.26881C9.49356 8.21804 9.38296 8.14365 9.29 8.04992L3.41 2.16992H16.59ZM18 13.1699C18 13.4351 17.8946 13.6895 17.7071 13.877C17.5196 14.0645 17.2652 14.1699 17 14.1699H3C2.73478 14.1699 2.48043 14.0645 2.29289 13.877C2.10536 13.6895 2 13.4351 2 13.1699V3.57992L7.88 9.45992C8.4425 10.0217 9.205 10.3373 10 10.3373C10.795 10.3373 11.5575 10.0217 12.12 9.45992L18 3.57992V13.1699Z" fill="white"/>
</svg>
