<svg width="16" height="21" viewBox="0 0 16 21" fill="none" xmlns="http://www.w3.org/2000/svg">
<path d="M8 0.560059C5.87827 0.560059 3.84344 1.40291 2.34315 2.90321C0.842855 4.4035 0 6.43833 0 8.56006C0 13.9601 7.05 20.0601 7.35 20.3201C7.53113 20.475 7.76165 20.5602 8 20.5602C8.23835 20.5602 8.46887 20.475 8.65 20.3201C9 20.0601 16 13.9601 16 8.56006C16 6.43833 15.1571 4.4035 13.6569 2.90321C12.1566 1.40291 10.1217 0.560059 8 0.560059ZM8 18.2101C5.87 16.2101 2 11.9001 2 8.56006C2 6.96876 2.63214 5.44264 3.75736 4.31742C4.88258 3.1922 6.4087 2.56006 8 2.56006C9.5913 2.56006 11.1174 3.1922 12.2426 4.31742C13.3679 5.44264 14 6.96876 14 8.56006C14 11.9001 10.13 16.2201 8 18.2101ZM8 4.56006C7.20887 4.56006 6.43552 4.79466 5.77772 5.23418C5.11992 5.67371 4.60723 6.29842 4.30448 7.02933C4.00173 7.76023 3.92252 8.5645 4.07686 9.34042C4.2312 10.1163 4.61216 10.8291 5.17157 11.3885C5.73098 11.9479 6.44371 12.3289 7.21964 12.4832C7.99556 12.6376 8.79983 12.5584 9.53073 12.2556C10.2616 11.9529 10.8864 11.4402 11.3259 10.7824C11.7654 10.1245 12 9.35119 12 8.56006C12 7.49919 11.5786 6.48178 10.8284 5.73163C10.0783 4.98149 9.06087 4.56006 8 4.56006ZM8 10.5601C7.60444 10.5601 7.21776 10.4428 6.88886 10.223C6.55996 10.0032 6.30362 9.69088 6.15224 9.32543C6.00087 8.95997 5.96126 8.55784 6.03843 8.16988C6.1156 7.78192 6.30608 7.42555 6.58579 7.14585C6.86549 6.86614 7.22186 6.67566 7.60982 6.59849C7.99778 6.52132 8.39991 6.56093 8.76537 6.7123C9.13082 6.86368 9.44318 7.12002 9.66294 7.44892C9.8827 7.77782 10 8.1645 10 8.56006C10 9.09049 9.78929 9.5992 9.41421 9.97427C9.03914 10.3493 8.53043 10.5601 8 10.5601Z" fill="#5497FA"/>
<path d="M8 0.560059C5.87827 0.560059 3.84344 1.40291 2.34315 2.90321C0.842855 4.4035 0 6.43833 0 8.56006C0 13.9601 7.05 20.0601 7.35 20.3201C7.53113 20.475 7.76165 20.5602 8 20.5602C8.23835 20.5602 8.46887 20.475 8.65 20.3201C9 20.0601 16 13.9601 16 8.56006C16 6.43833 15.1571 4.4035 13.6569 2.90321C12.1566 1.40291 10.1217 0.560059 8 0.560059ZM8 18.2101C5.87 16.2101 2 11.9001 2 8.56006C2 6.96876 2.63214 5.44264 3.75736 4.31742C4.88258 3.1922 6.4087 2.56006 8 2.56006C9.5913 2.56006 11.1174 3.1922 12.2426 4.31742C13.3679 5.44264 14 6.96876 14 8.56006C14 11.9001 10.13 16.2201 8 18.2101ZM8 4.56006C7.20887 4.56006 6.43552 4.79466 5.77772 5.23418C5.11992 5.67371 4.60723 6.29842 4.30448 7.02933C4.00173 7.76023 3.92252 8.5645 4.07686 9.34042C4.2312 10.1163 4.61216 10.8291 5.17157 11.3885C5.73098 11.9479 6.44371 12.3289 7.21964 12.4832C7.99556 12.6376 8.79983 12.5584 9.53073 12.2556C10.2616 11.9529 10.8864 11.4402 11.3259 10.7824C11.7654 10.1245 12 9.35119 12 8.56006C12 7.49919 11.5786 6.48178 10.8284 5.73163C10.0783 4.98149 9.06087 4.56006 8 4.56006ZM8 10.5601C7.60444 10.5601 7.21776 10.4428 6.88886 10.223C6.55996 10.0032 6.30362 9.69088 6.15224 9.32543C6.00087 8.95997 5.96126 8.55784 6.03843 8.16988C6.1156 7.78192 6.30608 7.42555 6.58579 7.14585C6.86549 6.86614 7.22186 6.67566 7.60982 6.59849C7.99778 6.52132 8.39991 6.56093 8.76537 6.7123C9.13082 6.86368 9.44318 7.12002 9.66294 7.44892C9.8827 7.77782 10 8.1645 10 8.56006C10 9.09049 9.78929 9.5992 9.41421 9.97427C9.03914 10.3493 8.53043 10.5601 8 10.5601Z" fill="white"/>
</svg>
