<svg width="110" height="110" viewBox="0 0 110 110" fill="none" xmlns="http://www.w3.org/2000/svg">
<g clip-path="url(#clip0_15_21)">
<path fill-rule="evenodd" clip-rule="evenodd" d="M0.419821 4.01762C-0.13994 4.61703 -0.13994 5.481 0.419821 6.08041C0.660701 6.33852 0.878374 6.57155 0.903304 6.59813C0.928223 6.62472 10.3765 6.69697 21.8994 6.75892L42.8501 6.87125L43.9855 7.46809C45.3549 8.18799 46.0699 8.91196 48.8668 12.4096C51.2395 15.3771 51.7889 15.7754 52.7939 15.257C53.1463 15.0752 53.4946 14.7704 53.5681 14.5794C53.9223 13.6584 53.6325 13.1417 50.8544 9.7399C47.6774 5.84973 46.3284 4.73344 43.8998 3.98504C42.5154 3.55842 42.002 3.54834 21.6704 3.54834H0.85796L0.419821 4.01762ZM38.2302 15.7079C37.5525 15.9521 37.1559 16.4963 37.1559 17.1821C37.1559 17.9837 36.6161 17.2803 45.9416 28.631C52.5788 36.7094 53.0619 37.4492 53.0522 39.5191C53.0462 40.8028 52.4617 42.0909 51.5296 42.8752C49.9461 44.2071 48.5436 44.3879 46.8579 43.4769C45.945 42.9836 45.0239 41.9767 41.2192 37.3135C38.718 34.2478 36.3395 31.392 35.9341 30.9674L35.1965 30.195L31.3952 30.047C21.708 29.6699 17.4138 28.4676 13.3644 24.999L11.5981 23.4858H6.23532H0.872357L0.427126 24.0507C-0.128122 24.7547 -0.139726 25.4324 0.392101 26.0882C0.798009 26.5888 0.855596 26.595 5.56726 26.6598L10.332 26.7252L11.946 28.0045C12.8336 28.7084 13.8651 29.4508 14.2379 29.6543C14.9044 30.0182 14.8542 30.0255 11.2207 30.083L7.52567 30.1417L7.08431 30.7015C6.64509 31.2587 6.64294 31.3772 6.64294 55C6.64294 78.691 6.64381 78.7397 7.08839 79.3033L7.53362 79.8682H17.9538C24.8879 79.8682 28.5166 79.7921 28.8 79.6408C29.8306 79.0905 29.7337 77.3902 28.6434 76.8947C28.2743 76.7269 25.3106 76.6525 18.9884 76.6525H9.86611V55V33.3474L21.8456 33.3502L33.8252 33.3532L35.1627 35.0116L36.5 36.6703L28.7059 36.7265L20.9116 36.7826L17.108 40.5988L13.3042 44.4151V55.0012V65.5874L17.0597 69.3513L20.8151 73.1152L47.4513 73.2224L74.0878 73.3296L72.5776 74.991L71.0677 76.6525H52.8059H34.5442L33.8942 77.301C33.3731 77.8209 33.2717 78.0655 33.3828 78.5337C33.4588 78.8551 33.7212 79.2868 33.9655 79.493C34.3804 79.8434 35.5195 79.8682 51.1469 79.8682C60.3521 79.8682 67.8836 79.9255 67.8836 79.9953C67.8836 80.0652 67.3486 80.7123 66.6945 81.4334C66.0404 82.1544 65.2428 83.2983 64.9217 83.9754L64.3381 85.2063L54.1227 85.217C43.1026 85.2287 42.346 85.294 40.6477 86.3814C38.7367 87.605 37.3529 89.749 37.0335 91.9808C36.9057 92.8746 36.6919 93.256 35.7469 94.2779C34.1776 95.975 33.6466 97.4289 33.7672 99.6981C33.9095 102.374 35.2748 104.487 37.693 105.773L38.7675 106.344L48.8051 106.406C58.6595 106.467 58.8505 106.46 59.2805 106.031C59.8306 105.482 59.8428 104.509 59.3076 103.849L58.8971 103.343L49.1545 103.236C42.3121 103.16 39.2842 103.055 38.9823 102.879C38.3106 102.489 37.4208 101.473 37.1696 100.811C36.8432 99.9483 36.8873 98.1732 37.2523 97.4688C37.7049 96.5959 38.9548 95.5758 39.8897 95.3167C40.4229 95.1686 46.2758 95.0914 56.9537 95.0905C74.721 95.0887 74.2518 95.1198 76.1565 93.8326C76.6292 93.5133 79.1274 90.9402 81.7081 88.1144C88.4794 80.7002 88.5836 80.575 88.5836 79.8543C88.5836 78.9509 87.963 78.3676 87.0017 78.3676C86.2271 78.3676 86.0263 78.562 80.4635 84.6954C77.3069 88.1758 74.4439 91.1681 74.1012 91.3449C71.5761 92.6475 68.2139 91.2588 67.4691 88.6054C67.1689 87.5356 67.2851 86.1085 67.7396 85.2829C68.2549 84.3473 81.6965 69.7713 82.6434 69.1213C83.1725 68.7581 84.1532 68.2552 84.823 68.0035C86.0016 67.5608 86.4123 67.5437 97.5372 67.4765C108.892 67.408 109.039 67.4015 109.517 66.9546C110.373 66.1519 110.035 64.8945 108.841 64.4412C108.487 64.3071 105.95 64.2184 102.465 64.2184H96.6776V47.74C96.6776 31.3938 96.674 31.257 96.2323 30.6966L95.7869 30.1317H81.5416H67.2966L62.5005 24.1826C59.8626 20.9105 57.6014 18.1604 57.4757 18.0707C56.4555 17.3449 55.143 17.9732 55.0336 19.2396C54.9743 19.9271 55.2977 20.3955 58.9551 24.9215C61.1476 27.6343 62.9414 29.9182 62.9414 29.9964C62.9414 30.0747 60.3097 30.1128 57.0935 30.0815L51.2455 30.0245L45.7233 23.2959C42.6859 19.595 40.0236 16.3975 39.8066 16.19C39.3429 15.7466 38.683 15.5449 38.2302 15.7079ZM93.4539 48.7829V64.2184H91.7356H90.0164V54.3099V44.4014L86.1955 40.5894L82.3747 36.7775H69.136H55.897L55.5334 35.8663C55.3334 35.3651 54.9363 34.6483 54.6507 34.2728C54.3649 33.8975 54.1314 33.5356 54.1314 33.469C54.1314 33.4021 62.979 33.3474 73.7928 33.3474H93.4539V48.7829ZM40.5159 41.537C42.5412 44.0187 42.4282 43.6349 41.6943 45.5333C40.5303 48.5449 40.0819 51.2275 40.0763 55.2144C40.0709 59.1229 40.3807 61.094 41.4708 64.0821C42.1632 65.9796 42.843 67.2362 44.0677 68.8812L44.9055 70.0067H33.5665H22.2275L19.3774 67.1692L16.5274 64.3316V55.0057V45.6801L19.3715 42.8366L22.2157 39.9932H30.7359H39.2562L40.5159 41.537ZM83.9512 42.8389L86.7977 45.6846L86.7417 54.9783L86.6856 64.2717L85.2888 64.637C82.5504 65.3531 80.2314 66.7331 78.0986 68.9155L77.0321 70.0067H67.7235H58.415L59.2527 68.8812C62.0032 65.1863 63.3712 60.6183 63.3712 55.1277C63.3712 49.544 61.9367 44.6466 59.2676 41.12L58.415 39.9932H69.7597H81.1047L83.9512 42.8389ZM56.9125 43.5117C58.9917 46.6957 59.9735 50.2746 59.9764 54.681C59.9802 60.3529 58.3369 65.4026 55.5981 68.1349C52.1486 71.5763 48.0975 70.2301 45.427 64.7543C43.1529 60.0917 42.6945 54.3373 44.1433 48.6393C44.4317 47.5047 44.708 46.5363 44.757 46.4875C44.806 46.4386 45.5447 46.6103 46.3984 46.8691C48.3373 47.4565 50.1353 47.3418 51.9877 46.5124C53.4604 45.8529 55.2101 44.1417 55.6486 42.932C55.807 42.4946 55.9543 42.1371 55.9756 42.1371C55.9971 42.1371 56.4187 42.7555 56.9125 43.5117ZM26.6562 50.3627C25.5856 50.7492 24.2661 51.9465 23.8124 52.9431C23.2944 54.0811 23.2929 55.9152 23.8088 57.0486C24.0265 57.5268 24.6039 58.259 25.0919 58.6756C26.695 60.0448 28.6118 60.2907 30.472 59.3658C34.1039 57.5601 34.1039 52.4398 30.472 50.6341C29.2244 50.0139 27.8862 49.9187 26.6562 50.3627ZM72.7966 50.6667C69.3345 52.461 69.1679 57.2413 72.4994 59.1894C75.8002 61.1192 79.9169 58.7941 79.9169 55C79.9169 51.3244 76.0583 48.976 72.7966 50.6667ZM29.224 53.5598C30.1749 54.288 30.2417 55.4768 29.377 56.2802C28.3651 57.221 26.6267 56.4117 26.6267 55C26.6267 53.7169 28.2523 52.8154 29.224 53.5598ZM76.1661 53.8112C77.6679 55.3093 75.4953 57.7228 73.9434 56.2802C73.3314 55.7115 73.1535 54.9481 73.4873 54.3232C74.1027 53.1708 75.2959 52.9428 76.1661 53.8112ZM94.3543 88.9167C93.6819 89.5306 90.4244 92.7096 87.1153 95.9803C82.022 101.015 80.9008 102.02 79.8094 102.526L78.5201 103.124L71.644 103.238C67.8621 103.301 64.596 103.434 64.3858 103.534C63.5185 103.946 63.3277 105.236 64.0242 105.982C64.4565 106.445 64.5493 106.452 71.07 106.452C78.4905 106.452 79.1674 106.36 81.7981 105.004C83.1557 104.304 84.2293 103.349 90.1033 97.6081L96.8497 91.0161H102.897H108.945L109.472 90.4898C109.762 90.2004 110 89.7137 110 89.4082C110 89.1027 109.762 88.616 109.472 88.3267L108.945 87.8004H102.261H95.5776L94.3543 88.9167ZM64.3441 89.4569C64.4915 89.9553 64.8132 90.7031 65.0588 91.1184L65.5055 91.8736H52.9422C44.3891 91.8736 40.379 91.8024 40.379 91.6506C40.379 91.528 40.5703 91.0538 40.8039 90.5968C41.2568 89.7109 42.1768 88.9421 43.1275 88.6543C43.4477 88.5576 48.292 88.4945 53.8928 88.5145L64.076 88.5507L64.3441 89.4569Z" fill="#929292"/>
</g>
<defs>
<clipPath id="clip0_15_21">
<rect width="110" height="102.903" fill="white" transform="translate(0 3.54834)"/>
</clipPath>
</defs>
</svg>
