<svg width="112" height="110" viewBox="0 0 112 110" fill="none" xmlns="http://www.w3.org/2000/svg">
<path d="M94.9743 0.00827256C85.5406 -0.251665 77.5563 5.64611 77.1319 13.1851C76.7024 20.724 84.0029 27.0428 93.434 27.303C102.865 27.5631 110.854 21.6615 111.279 14.1244C111.709 6.58726 104.406 0.268424 94.9743 0.00827256Z" fill="#929292"/>
<path d="M89.9853 32.9448C83.5537 30.9061 76.2133 33.4344 73.5966 38.5998L73.5967 38.594L59.5798 65.8312L33.0096 59.566C27.2612 57.8103 20.7773 60.0154 18.3247 64.5671L0.815799 100.29C-1.10422 103.847 0.93547 107.947 5.37502 109.443C9.81512 110.938 14.9677 109.263 16.8878 105.704L34.9255 79.7846L55.3404 86.2659C67.4337 90.2629 76.065 86.2659 81.1968 76.5603L96.891 45.9801C99.5103 40.8186 96.4239 34.9835 89.9853 32.9448Z" fill="#929292"/>
<path d="M23.5849 51.1553L50.5622 37.3051L23.9574 23.4572L23.8501 31.4321H2.83586L2.67785 43.1804H23.6921L23.5849 51.1553Z" fill="#929292"/>
</svg>
