<svg width="20" height="20" viewBox="0 0 20 20" fill="none" xmlns="http://www.w3.org/2000/svg">
<path d="M17.4097 11C17.1897 11 16.9597 10.93 16.7397 10.88C16.2945 10.7805 15.8568 10.6501 15.4297 10.49C14.9658 10.3212 14.4558 10.33 13.998 10.5146C13.5402 10.6992 13.1668 11.0466 12.9497 11.49L12.7297 11.95C11.7585 11.3992 10.8613 10.7271 10.0597 9.95C9.28254 9.14837 8.61048 8.25118 8.05968 7.28L8.51968 7.07C8.96305 6.85292 9.31046 6.47953 9.49508 6.02169C9.67969 5.56385 9.68845 5.05391 9.51968 4.59C9.36087 4.15903 9.23059 3.71808 9.12968 3.27C9.07968 3.05 9.03968 2.82 9.00968 2.6C8.88825 1.89562 8.51931 1.25774 7.96931 0.801239C7.4193 0.344737 6.72438 0.0996088 6.00968 0.11H2.99968C2.57693 0.109446 2.15883 0.198248 1.7728 0.370584C1.38677 0.54292 1.04152 0.794898 0.759684 1.11C0.472004 1.43365 0.257799 1.81575 0.131787 2.23004C0.00577496 2.64432 -0.0290571 3.08098 0.0296837 3.51C0.573271 7.67214 2.47489 11.5387 5.43968 14.51C8.41103 17.4748 12.2775 19.3764 16.4397 19.92C16.5695 19.9299 16.6999 19.9299 16.8297 19.92C17.5671 19.9211 18.2791 19.6505 18.8297 19.16C19.1448 18.8782 19.3968 18.5329 19.5691 18.1469C19.7414 17.7609 19.8302 17.3428 19.8297 16.92V13.92C19.8243 13.229 19.5805 12.5611 19.1396 12.0291C18.6987 11.4971 18.0876 11.1336 17.4097 11ZM17.8997 17C17.8994 17.1395 17.8698 17.2775 17.813 17.4049C17.7562 17.5324 17.6733 17.6465 17.5697 17.74C17.4601 17.8399 17.3297 17.9141 17.1878 17.9573C17.046 18.0006 16.8963 18.0117 16.7497 17.99C13.018 17.5026 9.54993 15.802 6.87968 13.15C4.20716 10.4775 2.49171 6.99737 1.99968 3.25C1.97796 3.10333 1.98912 2.95367 2.03236 2.81185C2.0756 2.67003 2.14983 2.5396 2.24968 2.43C2.3443 2.32515 2.46006 2.24154 2.58933 2.18466C2.7186 2.12778 2.85846 2.09892 2.99968 2.1H5.99968C6.23085 2.09435 6.45682 2.16898 6.63915 2.3112C6.82147 2.45341 6.94888 2.65442 6.99968 2.88C6.99968 3.15 7.08968 3.43 7.14968 3.7C7.26526 4.22386 7.419 4.73857 7.60968 5.24L6.20968 5.9C5.96905 6.01046 5.78204 6.21185 5.68968 6.46C5.58967 6.70346 5.58967 6.97654 5.68968 7.22C7.12888 10.3028 9.60693 12.7808 12.6897 14.22C12.9331 14.32 13.2062 14.32 13.4497 14.22C13.6978 14.1276 13.8992 13.9406 14.0097 13.7L14.6397 12.3C15.1556 12.4881 15.6834 12.6418 16.2197 12.76C16.4797 12.82 16.7597 12.87 17.0297 12.91C17.2553 12.9608 17.4563 13.0882 17.5985 13.2705C17.7407 13.4529 17.8153 13.6788 17.8097 13.91L17.8997 17ZM11.9997 0C11.7697 0 11.5297 0 11.2997 0C11.0345 0.0225434 10.7891 0.14952 10.6175 0.352997C10.4459 0.556474 10.3621 0.819784 10.3847 1.085C10.4072 1.35022 10.5342 1.59562 10.7377 1.76721C10.9412 1.93881 11.2045 2.02254 11.4697 2H11.9997C13.591 2 15.1171 2.63214 16.2423 3.75736C17.3675 4.88258 17.9997 6.4087 17.9997 8C17.9997 8.18 17.9997 8.35 17.9997 8.53C17.9775 8.79381 18.0609 9.05565 18.2314 9.2581C18.402 9.46055 18.6459 9.5871 18.9097 9.61H18.9897C19.24 9.61102 19.4816 9.5181 19.6668 9.34961C19.8519 9.18113 19.9672 8.94932 19.9897 8.7C19.9897 8.47 19.9897 8.23 19.9897 8C19.9897 5.88 19.1482 3.84668 17.6501 2.34668C16.1519 0.846674 14.1197 0.00265 11.9997 0ZM13.9997 8C13.9997 8.26522 14.105 8.51957 14.2926 8.70711C14.4801 8.89464 14.7345 9 14.9997 9C15.2649 9 15.5193 8.89464 15.7068 8.70711C15.8943 8.51957 15.9997 8.26522 15.9997 8C15.9997 6.93913 15.5783 5.92172 14.8281 5.17157C14.078 4.42143 13.0605 4 11.9997 4C11.7345 4 11.4801 4.10536 11.2926 4.29289C11.105 4.48043 10.9997 4.73478 10.9997 5C10.9997 5.26522 11.105 5.51957 11.2926 5.70711C11.4801 5.89464 11.7345 6 11.9997 6C12.5301 6 13.0388 6.21071 13.4139 6.58579C13.789 6.96086 13.9997 7.46957 13.9997 8Z" fill="#5497FA"/>
<path d="M17.4097 11C17.1897 11 16.9597 10.93 16.7397 10.88C16.2945 10.7805 15.8568 10.6501 15.4297 10.49C14.9658 10.3212 14.4558 10.33 13.998 10.5146C13.5402 10.6992 13.1668 11.0466 12.9497 11.49L12.7297 11.95C11.7585 11.3992 10.8613 10.7271 10.0597 9.95C9.28254 9.14837 8.61048 8.25118 8.05968 7.28L8.51968 7.07C8.96305 6.85292 9.31046 6.47953 9.49508 6.02169C9.67969 5.56385 9.68845 5.05391 9.51968 4.59C9.36087 4.15903 9.23059 3.71808 9.12968 3.27C9.07968 3.05 9.03968 2.82 9.00968 2.6C8.88825 1.89562 8.51931 1.25774 7.96931 0.801239C7.4193 0.344737 6.72438 0.0996088 6.00968 0.11H2.99968C2.57693 0.109446 2.15883 0.198248 1.7728 0.370584C1.38677 0.54292 1.04152 0.794898 0.759684 1.11C0.472004 1.43365 0.257799 1.81575 0.131787 2.23004C0.00577496 2.64432 -0.0290571 3.08098 0.0296837 3.51C0.573271 7.67214 2.47489 11.5387 5.43968 14.51C8.41103 17.4748 12.2775 19.3764 16.4397 19.92C16.5695 19.9299 16.6999 19.9299 16.8297 19.92C17.5671 19.9211 18.2791 19.6505 18.8297 19.16C19.1448 18.8782 19.3968 18.5329 19.5691 18.1469C19.7414 17.7609 19.8302 17.3428 19.8297 16.92V13.92C19.8243 13.229 19.5805 12.5611 19.1396 12.0291C18.6987 11.4971 18.0876 11.1336 17.4097 11ZM17.8997 17C17.8994 17.1395 17.8698 17.2775 17.813 17.4049C17.7562 17.5324 17.6733 17.6465 17.5697 17.74C17.4601 17.8399 17.3297 17.9141 17.1878 17.9573C17.046 18.0006 16.8963 18.0117 16.7497 17.99C13.018 17.5026 9.54993 15.802 6.87968 13.15C4.20716 10.4775 2.49171 6.99737 1.99968 3.25C1.97796 3.10333 1.98912 2.95367 2.03236 2.81185C2.0756 2.67003 2.14983 2.5396 2.24968 2.43C2.3443 2.32515 2.46006 2.24154 2.58933 2.18466C2.7186 2.12778 2.85846 2.09892 2.99968 2.1H5.99968C6.23085 2.09435 6.45682 2.16898 6.63915 2.3112C6.82147 2.45341 6.94888 2.65442 6.99968 2.88C6.99968 3.15 7.08968 3.43 7.14968 3.7C7.26526 4.22386 7.419 4.73857 7.60968 5.24L6.20968 5.9C5.96905 6.01046 5.78204 6.21185 5.68968 6.46C5.58967 6.70346 5.58967 6.97654 5.68968 7.22C7.12888 10.3028 9.60693 12.7808 12.6897 14.22C12.9331 14.32 13.2062 14.32 13.4497 14.22C13.6978 14.1276 13.8992 13.9406 14.0097 13.7L14.6397 12.3C15.1556 12.4881 15.6834 12.6418 16.2197 12.76C16.4797 12.82 16.7597 12.87 17.0297 12.91C17.2553 12.9608 17.4563 13.0882 17.5985 13.2705C17.7407 13.4529 17.8153 13.6788 17.8097 13.91L17.8997 17ZM11.9997 0C11.7697 0 11.5297 0 11.2997 0C11.0345 0.0225434 10.7891 0.14952 10.6175 0.352997C10.4459 0.556474 10.3621 0.819784 10.3847 1.085C10.4072 1.35022 10.5342 1.59562 10.7377 1.76721C10.9412 1.93881 11.2045 2.02254 11.4697 2H11.9997C13.591 2 15.1171 2.63214 16.2423 3.75736C17.3675 4.88258 17.9997 6.4087 17.9997 8C17.9997 8.18 17.9997 8.35 17.9997 8.53C17.9775 8.79381 18.0609 9.05565 18.2314 9.2581C18.402 9.46055 18.6459 9.5871 18.9097 9.61H18.9897C19.24 9.61102 19.4816 9.5181 19.6668 9.34961C19.8519 9.18113 19.9672 8.94932 19.9897 8.7C19.9897 8.47 19.9897 8.23 19.9897 8C19.9897 5.88 19.1482 3.84668 17.6501 2.34668C16.1519 0.846674 14.1197 0.00265 11.9997 0ZM13.9997 8C13.9997 8.26522 14.105 8.51957 14.2926 8.70711C14.4801 8.89464 14.7345 9 14.9997 9C15.2649 9 15.5193 8.89464 15.7068 8.70711C15.8943 8.51957 15.9997 8.26522 15.9997 8C15.9997 6.93913 15.5783 5.92172 14.8281 5.17157C14.078 4.42143 13.0605 4 11.9997 4C11.7345 4 11.4801 4.10536 11.2926 4.29289C11.105 4.48043 10.9997 4.73478 10.9997 5C10.9997 5.26522 11.105 5.51957 11.2926 5.70711C11.4801 5.89464 11.7345 6 11.9997 6C12.5301 6 13.0388 6.21071 13.4139 6.58579C13.789 6.96086 13.9997 7.46957 13.9997 8Z" fill="#0277FA"/>
</svg>
