<svg width="20" height="21" viewBox="0 0 20 21" fill="none" xmlns="http://www.w3.org/2000/svg">
<path d="M13.0981 10.8037L11 9.59277V5.16992C11 4.9047 10.8946 4.65035 10.7071 4.46281C10.5196 4.27528 10.2652 4.16992 10 4.16992C9.73479 4.16992 9.48043 4.27528 9.2929 4.46281C9.10536 4.65035 9 4.9047 9 5.16992V10.1699C8.99996 10.3455 9.04614 10.518 9.13391 10.67C9.22168 10.8221 9.34795 10.9483 9.5 11.0361L12.0981 12.5361C12.2119 12.6019 12.3375 12.6445 12.4678 12.6617C12.598 12.6789 12.7304 12.6703 12.8573 12.6363C12.9842 12.6023 13.1032 12.5436 13.2074 12.4637C13.3117 12.3837 13.3991 12.2839 13.4648 12.1702C13.5305 12.0564 13.5731 11.9307 13.5902 11.8005C13.6073 11.6702 13.5986 11.5379 13.5646 11.411C13.5305 11.2841 13.4718 11.1651 13.3918 11.0609C13.3117 10.9567 13.212 10.8693 13.0981 10.8037ZM10 0.169922C8.02219 0.169922 6.08879 0.756412 4.4443 1.85522C2.79981 2.95404 1.51809 4.51582 0.761209 6.34309C0.00433296 8.17035 -0.193701 10.181 0.192152 12.1208C0.578004 14.0606 1.53041 15.8424 2.92894 17.241C4.32746 18.6395 6.10929 19.5919 8.0491 19.9778C9.98891 20.3636 11.9996 20.1656 13.8268 19.4087C15.6541 18.6518 17.2159 17.3701 18.3147 15.7256C19.4135 14.0811 20 12.1477 20 10.1699C19.9971 7.51866 18.9425 4.97683 17.0678 3.10211C15.1931 1.22738 12.6513 0.17287 10 0.169922ZM10 18.1699C8.41775 18.1699 6.87104 17.7007 5.55544 16.8217C4.23985 15.9426 3.21447 14.6932 2.60897 13.2314C2.00347 11.7696 1.84504 10.1611 2.15372 8.6092C2.4624 7.05735 3.22433 5.63189 4.34315 4.51307C5.46197 3.39425 6.88743 2.63232 8.43928 2.32364C9.99113 2.01496 11.5997 2.17338 13.0615 2.77888C14.5233 3.38439 15.7727 4.40976 16.6518 5.72536C17.5308 7.04095 18 8.58767 18 10.1699C17.9976 12.2909 17.1539 14.3243 15.6542 15.8241C14.1544 17.3238 12.121 18.1675 10 18.1699Z" fill="#5497FA"/>
<path d="M13.0981 10.8037L11 9.59277V5.16992C11 4.9047 10.8946 4.65035 10.7071 4.46281C10.5196 4.27528 10.2652 4.16992 10 4.16992C9.73479 4.16992 9.48043 4.27528 9.2929 4.46281C9.10536 4.65035 9 4.9047 9 5.16992V10.1699C8.99996 10.3455 9.04614 10.518 9.13391 10.67C9.22168 10.8221 9.34795 10.9483 9.5 11.0361L12.0981 12.5361C12.2119 12.6019 12.3375 12.6445 12.4678 12.6617C12.598 12.6789 12.7304 12.6703 12.8573 12.6363C12.9842 12.6023 13.1032 12.5436 13.2074 12.4637C13.3117 12.3837 13.3991 12.2839 13.4648 12.1702C13.5305 12.0564 13.5731 11.9307 13.5902 11.8005C13.6073 11.6702 13.5986 11.5379 13.5646 11.411C13.5305 11.2841 13.4718 11.1651 13.3918 11.0609C13.3117 10.9567 13.212 10.8693 13.0981 10.8037ZM10 0.169922C8.02219 0.169922 6.08879 0.756412 4.4443 1.85522C2.79981 2.95404 1.51809 4.51582 0.761209 6.34309C0.00433296 8.17035 -0.193701 10.181 0.192152 12.1208C0.578004 14.0606 1.53041 15.8424 2.92894 17.241C4.32746 18.6395 6.10929 19.5919 8.0491 19.9778C9.98891 20.3636 11.9996 20.1656 13.8268 19.4087C15.6541 18.6518 17.2159 17.3701 18.3147 15.7256C19.4135 14.0811 20 12.1477 20 10.1699C19.9971 7.51866 18.9425 4.97683 17.0678 3.10211C15.1931 1.22738 12.6513 0.17287 10 0.169922ZM10 18.1699C8.41775 18.1699 6.87104 17.7007 5.55544 16.8217C4.23985 15.9426 3.21447 14.6932 2.60897 13.2314C2.00347 11.7696 1.84504 10.1611 2.15372 8.6092C2.4624 7.05735 3.22433 5.63189 4.34315 4.51307C5.46197 3.39425 6.88743 2.63232 8.43928 2.32364C9.99113 2.01496 11.5997 2.17338 13.0615 2.77888C14.5233 3.38439 15.7727 4.40976 16.6518 5.72536C17.5308 7.04095 18 8.58767 18 10.1699C17.9976 12.2909 17.1539 14.3243 15.6542 15.8241C14.1544 17.3238 12.121 18.1675 10 18.1699Z" fill="#0277FA"/>
</svg>
