<svg width="45" height="45" viewBox="0 0 45 45" fill="none" xmlns="http://www.w3.org/2000/svg">
<g clip-path="url(#clip0_90_5)">
<path d="M22.5 45C34.9264 45 45 34.9264 45 22.5C45 10.0736 34.9264 0 22.5 0C10.0736 0 0 10.0736 0 22.5C0 34.9264 10.0736 45 22.5 45Z" fill="#4D7198"/>
<path d="M25.7445 11.9312H19.2555C13.3334 11.9312 11.9312 13.3334 11.9312 19.2555V25.7445C11.9312 31.6666 13.3334 33.0688 19.2555 33.0688H25.7445C31.6666 33.0688 33.0688 31.6666 33.0688 25.7445V19.2555C33.0688 13.3334 31.6516 11.9312 25.7445 11.9312ZM28.9964 27.0123H27.4584C26.8765 27.0123 26.6977 26.55 25.6535 25.4909C24.7434 24.612 24.3409 24.4916 24.1154 24.4916C23.8021 24.4916 23.7125 24.5795 23.7125 25.0137V26.401C23.7125 26.7741 23.5929 26.9978 22.6085 26.9978C20.9826 26.9978 19.1777 26.0134 17.9095 24.1783C16 21.4932 15.478 19.4792 15.478 19.0617C15.478 18.838 15.5659 18.6293 16 18.6293H17.5381C17.9262 18.6293 18.0751 18.8082 18.2241 19.2261C18.9848 21.4189 20.2531 23.3433 20.7729 23.3433C20.9667 23.3433 21.0564 23.2554 21.0564 22.7615V20.4939C20.9966 19.4498 20.4447 19.3601 20.4447 18.9875C20.4447 18.8086 20.5937 18.6293 20.8327 18.6293H23.2497C23.578 18.6293 23.6971 18.8082 23.6971 19.1962V22.2539C23.6971 22.5822 23.846 22.7013 23.9357 22.7013C24.1295 22.7013 24.2938 22.5817 24.6516 22.224C25.7555 20.9861 26.546 19.0767 26.546 19.0767C26.6506 18.853 26.8295 18.6442 27.2175 18.6442H28.7556C29.2179 18.6442 29.3225 18.8829 29.2179 19.2111C29.0241 20.1063 27.1446 22.7615 27.1446 22.7615C26.9807 23.03 26.9209 23.1495 27.1446 23.4475C27.3085 23.6711 27.8477 24.1334 28.2037 24.5514C28.8602 25.2984 29.3673 25.9238 29.5014 26.3562C29.653 26.7886 29.4289 27.0123 28.9964 27.0123Z" fill="white"/>
</g>
<defs>
<clipPath id="clip0_90_5">
<rect width="45" height="45" fill="white"/>
</clipPath>
</defs>
</svg>
